#!OML:ASF H:\ColoradoDance\Project 1\Capture day 1\Session 8\male.ASF
:FULLY-SPECIFIED
:DEGREES
1
upperback -1.238110 -4.713250 5.466300
rfoot -15.545600 -19.566000
lradius 25.227699
lthumb -8.262440 71.125603
rradius 25.609301
lwrist -5.700740
rhand -19.043501 2.463820
rhumerus -44.099499 -11.860000 -57.425098
lowerneck -6.052560 -0.069906 -0.758774
lhand -35.121899 41.307098
ltibia 75.026703
head 1.739190 0.005571 1.172160
rwrist 12.623600
lfingers 7.125020
rtoes -4.777350
lowerback 4.335790 -4.538500 14.882600
rfingers 7.125020
lclavicle 0.000000 -0.000000
upperneck 2.240540 -0.147248 3.323690
rfemur -52.369999 -19.695400 62.678902
thorax -4.540840 -2.523980 -2.062020
rclavicle 0.000000 -0.000000
rtibia 50.247700
lfoot 8.524870 -22.532200
lhumerus -21.384199 11.472200 45.498199
rthumb 7.263160 -27.391500
root -25.926800 17.997299 14.086500 -103.510002 65.369598 -120.777000
ltoes -9.349640
lfemur -27.696899 26.997999 -6.665260
2
upperback -0.660396 -3.295610 5.083140
rfoot 7.648530 -13.028500
lradius 21.208500
lthumb -2.698040 71.115997
rradius 28.047899
lwrist -16.197300
rhand -2.761150 -9.510800
rhumerus -42.918400 -16.346100 -58.847301
lowerneck -6.805220 0.599024 2.335450
lhand -29.358601 41.153400
ltibia 54.480202
head 0.448193 0.439926 0.940957
rwrist 7.582820
lfingers 7.125020
rtoes -48.860500
lowerback 2.381480 -3.029930 13.524900
rfingers 7.125020
lclavicle 0.000000 -0.000000
upperneck -2.172540 0.726863 4.266210
rfemur -62.452599 -14.509900 48.695801
thorax -2.524320 -1.705060 -2.045780
rclavicle 0.000000 -0.000000
rtibia 61.943802
lfoot -28.902201 4.969800
lhumerus -26.567301 18.016600 49.385300
rthumb 22.943199 -38.165600
root -29.855200 18.390800 18.785601 -89.016502 64.588600 -110.955002
ltoes -6.486430
lfemur -33.365299 3.308800 -8.252890
3
upperback -1.396870 -0.870663 5.112970
rfoot -44.301601 -42.415401
lradius 20.506800
lthumb -1.845250 79.935997
rradius 32.819302
lwrist -17.509399
rhand -6.418520 -19.646099
rhumerus -39.260201 -6.407950 -72.250099
lowerneck -4.038440 -1.733950 1.671060
lhand -28.475599 49.964199
ltibia 58.824299
head 0.178758 -1.154040 0.339677
rwrist 2.822790
lfingers 7.125020
rtoes -15.341800
lowerback 4.235820 -1.504470 12.593700
rfingers 7.125020
lclavicle -0.000000 0.000000
upperneck -1.596330 -2.344400 2.123720
rfemur 1.566110 40.986900 25.334299
thorax -4.009750 -0.578992 -1.606930
rclavicle -0.000000 0.000000
rtibia 15.632700
lfoot -27.689800 3.756210
lhumerus -47.825500 19.985300 53.633801
rthumb 19.430000 -48.695301
root -32.190800 18.514500 22.593500 -93.703201 66.730301 -109.936996
ltoes -13.897000
lfemur -38.362099 6.143930 2.474200
4
upperback -2.964230 -1.736440 4.160230
rfoot -74.313797 -36.271599
lradius 20.741600
lthumb -5.699090 70.362396
rradius 43.891998
lwrist -16.490900
rhand -18.305599 -28.101900
rhumerus -40.001999 13.403400 -95.664703
lowerneck -3.798350 -1.032270 0.501064
lhand -32.466400 40.459000
ltibia 47.739201
head 0.309959 -0.672780 0.356365
rwrist -21.665100
lfingers 7.125020
rtoes 44.846901
lowerback 5.292810 -2.388530 13.061200
rfingers 7.125020
lclavicle -0.000000 -0.000000
upperneck -1.043640 -1.380230 1.509350
rfemur 8.604910 52.948898 37.619801
thorax -6.459930 -1.227610 -2.691510
rclavicle -0.000000 -0.000000
rtibia -0.000000
lfoot -12.227800 15.865700
lhumerus -48.958401 17.724600 56.360600
rthumb 7.975360 -57.931400
root -34.970299 18.821100 26.733500 -95.547203 68.041702 -113.255997
ltoes -5.535360
lfemur -44.521801 -4.012680 17.963900
5
upperback -2.219930 -2.386380 0.345568
rfoot -75.319801 -46.076698
lradius 31.008101
lthumb -0.247821 68.113998
rradius 41.694302
lwrist -5.016330
rhand -29.640800 -23.487400
rhumerus -50.469898 28.311001 -105.925003
lowerneck -1.841850 -0.770535 1.467180
lhand -26.821600 38.134399
ltibia 48.848900
head 0.076392 -0.529910 -0.948031
rwrist -41.546600
lfingers 7.125020
rtoes 35.444199
lowerback 3.877370 -2.067880 5.971900
rfingers 7.125020
lclavicle -0.000000 0.000000
upperneck -0.678312 -1.048910 -2.295620
rfemur -6.266710 55.799702 26.318800
thorax -4.718330 -1.359230 -2.794000
rclavicle -0.000000 0.000000
rtibia 20.925600
lfoot -19.126400 -3.380940
lhumerus -41.831402 7.955350 68.575996
rthumb -2.970530 -53.446499
root -36.688099 19.568800 29.024700 -120.304001 81.881699 -134.735001
ltoes -16.022699
lfemur -30.468800 0.870252 -14.722400
6
upperback -1.932520 -3.214940 -0.018299
rfoot -43.920700 -50.214298
lradius 30.240101
lthumb -0.887564 65.709602
rradius 37.368301
lwrist -5.143200
rhand -26.729200 -29.210400
rhumerus -58.101398 32.396999 -114.569000
lowerneck -3.084660 -0.233853 3.297600
lhand -27.483999 35.731701
ltibia 31.333099
head 1.083160 -0.204781 -1.468100
rwrist -47.263699
lfingers 7.125020
rtoes 11.798800
lowerback -4.087600 -2.394870 1.402200
rfingers 7.125020
lclavicle -0.000000 -0.000000
upperneck 1.842750 -0.374268 -2.893350
rfemur -15.780800 39.594501 23.645800
thorax 0.226745 -1.604670 -0.935845
rclavicle -0.000000 -0.000000
rtibia 31.075899
lfoot -26.842800 4.116510
lhumerus -41.215698 6.685340 71.490303
rthumb -0.158515 -59.190102
root -37.422901 19.544300 30.351999 -142.626007 84.417099 -156.378998
ltoes -35.164001
lfemur -17.716101 -4.331610 -21.340500
7
upperback -2.896900 -3.755710 0.519806
rfoot -21.634001 -50.081299
lradius 29.425800
lthumb 1.082340 64.497803
rradius 42.102798
lwrist -7.425640
rhand -15.520800 -33.702900
rhumerus -65.239998 35.240398 -121.419998
lowerneck -4.164280 0.629328 2.565620
lhand -25.444401 34.520802
ltibia 28.361099
head 2.163570 0.387319 -1.094510
rwrist -51.807400
lfingers 7.125020
rtoes -8.615570
lowerback -8.024370 -2.743700 2.282530
rfingers 7.125020
lclavicle 0.000000 -0.000000
upperneck 4.527360 0.798182 -2.139400
rfemur -19.053499 34.506901 23.865700
thorax 1.382050 -1.848500 -1.078040
rclavicle 0.000000 -0.000000
rtibia 32.285301
lfoot -28.113199 0.298262
lhumerus -43.425400 3.729350 78.265198
rthumb 10.662400 -63.412300
root -38.005402 19.652201 30.862200 -139.520996 84.450401 -153.358002
ltoes -36.262798
lfemur -18.579000 -0.828218 -19.717300
8
upperback -3.802570 -2.991140 0.110391
rfoot -8.153640 -48.148499
lradius 29.380199
lthumb 4.222880 61.518799
rradius 48.168400
lwrist -9.161130
rhand -14.999500 -38.140598
rhumerus -66.220398 34.830700 -121.293999
lowerneck -4.897290 0.294387 2.029610
lhand -22.192499 31.580900
ltibia 29.158100
head 2.943430 0.184953 -0.793258
rwrist -53.484299
lfingers 7.125020
rtoes -19.596500
lowerback -8.968230 -2.218330 1.957610
rfingers 7.125020
lclavicle 0.000000 0.000000
upperneck 6.513790 0.355750 -1.407670
rfemur -20.202299 32.219501 22.229200
thorax 0.986186 -1.460920 -1.268430
rclavicle 0.000000 0.000000
rtibia 32.510700
lfoot -34.156502 -6.443910
lhumerus -43.895401 -4.179820 86.502403
rthumb 11.165300 -67.823502
root -38.402100 19.654301 31.078199 -154.565002 85.418503 -168.059998
ltoes -35.909801
lfemur -20.117901 7.693380 -21.565201
9
upperback -4.252000 -2.222870 0.154595
rfoot -2.961090 -49.115799
lradius 31.015699
lthumb 4.090460 62.495998
rradius 48.598301
lwrist -8.497790
rhand -15.623500 -37.326900
rhumerus -67.317902 35.587601 -122.467003
lowerneck -5.611380 0.094740 1.502000
lhand -22.329599 32.555500
ltibia 29.142799
head 3.178790 0.052931 -0.586170
rwrist -55.844601
lfingers 7.125020
rtoes -20.587799
lowerback -9.244720 -1.657590 1.943570
rfingers 7.125020
lclavicle 0.000000 -0.000000
upperneck 6.830640 0.090593 -1.009190
rfemur -21.127701 35.147202 21.680901
thorax 0.701790 -1.072930 -1.143660
rclavicle 0.000000 -0.000000
rtibia 32.022099
lfoot -32.693199 -8.237790
lhumerus -44.274101 -7.687910 89.925301
rthumb 10.563300 -67.041496
root -38.620300 19.707600 31.258699 -154.608002 85.756401 -168.130997
ltoes -36.294201
lfemur -20.993200 8.093590 -21.367100
10
upperback -4.267990 -1.925880 -0.069081
rfoot -1.999700 -52.474800
lradius 29.676300
lthumb 4.197130 63.022701
rradius 47.976299
lwrist -9.142770
rhand -15.970100 -35.860901
rhumerus -67.353798 37.222099 -123.935997
lowerneck -5.639610 -0.153923 1.291600
lhand -22.219200 33.084301
ltibia 28.724199
head 2.877140 -0.119626 -0.556119
rwrist -57.768200
lfingers 7.125020
rtoes -18.056299
lowerback -8.859360 -1.450320 1.768020
rfingers 7.125020
lclavicle 0.000000 -0.000000
upperneck 5.946730 -0.236989 -0.998314
rfemur -22.100000 39.823002 20.647100
thorax 0.482240 -0.928296 -1.236810
rclavicle 0.000000 -0.000000
rtibia 31.930901
lfoot -31.487101 -9.840490
lhumerus -43.942902 -5.753500 88.479897
rthumb 10.229000 -65.592201
root -38.816601 19.743700 31.439699 -159.139999 86.132500 -172.561005
ltoes -35.494999
lfemur -21.404100 8.451300 -21.393700
11
upperback -4.296800 -1.524600 -0.274064
rfoot -3.221470 -55.730801
lradius 28.118500
lthumb 4.102260 63.065201
rradius 50.016998
lwrist -10.250600
rhand -15.250100 -35.846901
rhumerus -66.621300 36.824299 -122.531998
lowerneck -5.817560 -0.275055 1.642730
lhand -22.317400 33.124901
ltibia 27.971100
head 2.664650 -0.216371 -1.118810
rwrist -57.105000
lfingers 7.125020
rtoes -14.974800
lowerback -8.553700 -1.167820 1.508430
rfingers 7.125020
lclavicle 0.000000 0.000000
upperneck 5.208990 -0.337077 -2.547320
rfemur -23.070400 44.182701 18.807199
thorax 0.299974 -0.728688 -1.259550
rclavicle 0.000000 0.000000
rtibia 32.359699
lfoot -30.166500 -11.252800
lhumerus -43.272400 -2.967790 86.212799
rthumb 10.923600 -65.542702
root -39.000801 19.766300 31.535700 -173.203003 86.526901 -186.367004
ltoes -34.248100
lfemur -21.379900 8.662390 -22.225700
